<?xml version="1.0" encoding="UTF-8" standalone="no"?><!DOCTYPE svg PUBLIC "-//W3C//DTD SVG 1.1//EN" "http://www.w3.org/Graphics/SVG/1.1/DTD/svg11.dtd"><svg width="100%" height="100%" viewBox="0 0 101 123" version="1.1" xmlns="http://www.w3.org/2000/svg" xmlns:xlink="http://www.w3.org/1999/xlink" xml:space="preserve" xmlns:serif="http://www.serif.com/" style="fill-rule:evenodd;clip-rule:evenodd;stroke-linejoin:round;stroke-miterlimit:2;"><g id="Apple-logo" serif:id="Apple logo"><g><path d="M50.995,29.875c2.624,-0 11.132,-1.67 17.732,-11.292c5.646,-8.349 5.009,-17.652 5.009,-17.652c0,0 -9.78,-0.716 -18.368,9.939c-6.202,7.793 -5.725,18.925 -5.725,18.925c0,0 0.477,0.08 1.352,0.08Z" style="fill:#fff;fill-rule:nonzero;"/><path d="M100.056,91.022c0.477,-1.352 0.795,-2.147 0.795,-2.147l-0.079,-0c-0,-0 -0.08,-0 -0.16,-0.08c-0.477,-0.159 -1.59,-0.636 -3.021,-1.511c-2.863,-1.669 -6.838,-4.77 -9.701,-9.78c-1.829,-3.18 -3.101,-7.156 -3.419,-12.086c-0.159,-2.465 0.079,-4.851 0.557,-6.997l-0,-0.08c0.159,-0.716 0.318,-1.352 0.556,-2.067c2.545,-8.27 8.508,-13.677 10.894,-15.506c0.636,-0.477 0.954,-0.715 0.954,-0.715c-0,-0 -7.634,-11.848 -22.026,-11.848c-12.404,-0 -17.016,5.566 -23.616,5.566c-8.11,-0 -9.383,-5.169 -21.389,-5.169c-6.203,0 -14.87,2.386 -21.31,10.735c-5.089,6.52 -6.998,14.233 -7.793,19.879c-0.477,3.816 -0.636,7.951 -0.159,12.563c0,0.318 0.08,0.636 0.08,1.034c0.477,4.612 1.669,9.542 3.339,14.471c0,0.08 0.08,0.239 0.159,0.319c0.159,0.556 0.398,1.192 0.636,1.749c0.08,0.238 0.239,0.556 0.318,0.795c0.08,0.239 0.159,0.557 0.319,0.795c1.59,4.135 3.419,8.111 5.566,11.848c6.202,10.973 14.233,19.243 21.787,19.243c8.587,-0 11.291,-5.566 19.878,-5.487c10.894,0.08 13.916,6.997 23.06,5.169c6.123,-1.193 13.438,-9.86 18.129,-18.13c0.159,-0.318 0.318,-0.557 0.477,-0.795c2.227,-4.771 4.135,-9.224 5.169,-11.768Z" style="fill:#fff;fill-rule:nonzero;"/></g></g></svg>