<?xml version="1.0" encoding="UTF-8" standalone="no"?><!DOCTYPE svg PUBLIC "-//W3C//DTD SVG 1.1//EN" "http://www.w3.org/Graphics/SVG/1.1/DTD/svg11.dtd"><svg width="100%" height="100%" viewBox="0 0 540 532" version="1.1" xmlns="http://www.w3.org/2000/svg" xmlns:xlink="http://www.w3.org/1999/xlink" xml:space="preserve" xmlns:serif="http://www.serif.com/" style="fill-rule:evenodd;clip-rule:evenodd;stroke-linecap:square;stroke-linejoin:round;stroke-miterlimit:1.5;"><g id="Map"><path d="M539.168,84.046l-29.085,400.657c-2.006,27.641 -26.076,48.453 -53.717,46.446l-409.17,-29.703c-27.641,-2.006 -48.453,-26.076 -46.446,-53.717l29.085,-400.657c2.006,-27.641 26.076,-48.453 53.717,-46.446l409.169,29.702c27.641,2.007 48.453,26.077 46.447,53.718Z" style="fill:#eee496;"/><path d="M328.056,312.591l-6.526,26.326c-1.138,4.589 -5.787,7.391 -10.376,6.253l-16.63,-4.123c-4.589,-1.138 -7.391,-5.787 -6.253,-10.376l6.527,-26.325c1.137,-4.589 5.787,-7.391 10.376,-6.254l16.629,4.123c4.589,1.138 7.391,5.787 6.253,10.376Z" style="fill:#878787;"/><path d="M135.542,272.02l-6.527,26.326c-1.137,4.589 -5.787,7.391 -10.376,6.253l-16.629,-4.123c-4.589,-1.138 -7.391,-5.787 -6.253,-10.376l6.526,-26.325c1.138,-4.589 5.788,-7.391 10.376,-6.254l16.63,4.123c4.589,1.138 7.391,5.787 6.253,10.376Z" style="fill:#878787;"/><path d="M85.425,260.087l-6.527,26.326c-1.138,4.589 -5.787,7.391 -10.376,6.253l-16.629,-4.123c-4.589,-1.137 -7.391,-5.787 -6.254,-10.376l6.527,-26.325c1.138,-4.589 5.787,-7.391 10.376,-6.253l16.63,4.122c4.589,1.138 7.39,5.787 6.253,10.376Z" style="fill:#878787;"/><path d="M65.537,316.569l-6.527,26.325c-1.137,4.589 -5.787,7.391 -10.376,6.254l-16.629,-4.123c-4.589,-1.138 -7.391,-5.787 -6.253,-10.376l6.526,-26.326c1.138,-4.589 5.787,-7.391 10.376,-6.253l16.63,4.123c4.589,1.137 7.391,5.787 6.253,10.376Z" style="fill:#878787;"/><path d="M114.859,331.684l-6.527,26.325c-1.138,4.589 -5.787,7.391 -10.376,6.253l-16.629,-4.122c-4.589,-1.138 -7.391,-5.788 -6.254,-10.377l6.527,-26.325c1.138,-4.589 5.787,-7.391 10.376,-6.253l16.629,4.123c4.589,1.137 7.391,5.787 6.254,10.376Z" style="fill:#878787;"/><path d="M241.654,383.869l-2.725,10.995c-0.752,3.034 -3.826,4.886 -6.86,4.134l-97.352,-24.135c-3.034,-0.753 -4.886,-3.826 -4.134,-6.861l2.726,-10.994c0.752,-3.034 3.826,-4.887 6.86,-4.134l97.351,24.135c3.034,0.752 4.887,3.826 4.134,6.86Z" style="fill:#878787;"/><path d="M261.057,313.779l-9.139,36.862c-2.522,10.173 -12.829,16.384 -23.001,13.862l-75.893,-18.815c-10.172,-2.522 -16.384,-12.829 -13.862,-23.001l9.14,-36.863c2.522,-10.173 12.828,-16.384 23.001,-13.862l75.892,18.816c10.172,2.522 16.384,12.828 13.862,23.001Z" style="fill:#878787;"/><path d="M309.66,381.701l-6.527,26.326c-1.137,4.589 -5.787,7.391 -10.376,6.253l-16.629,-4.123c-4.589,-1.137 -7.391,-5.787 -6.253,-10.376l6.526,-26.325c1.138,-4.589 5.787,-7.391 10.376,-6.253l16.63,4.122c4.589,1.138 7.391,5.787 6.253,10.376Z" style="fill:#878787;"/><path d="M292.755,448.326l-6.526,26.325c-1.138,4.589 -5.787,7.391 -10.376,6.253l-16.63,-4.122c-4.589,-1.138 -7.391,-5.787 -6.253,-10.376l6.527,-26.326c1.137,-4.589 5.787,-7.391 10.376,-6.253l16.629,4.123c4.589,1.137 7.391,5.787 6.253,10.376Z" style="fill:#878787;"/><path d="M57.085,397.612l-6.527,26.325c-1.138,4.589 -5.787,7.391 -10.376,6.253l-16.629,-4.122c-4.589,-1.138 -7.391,-5.787 -6.254,-10.376l6.527,-26.326c1.138,-4.589 5.787,-7.391 10.376,-6.253l16.629,4.123c4.589,1.137 7.391,5.787 6.254,10.376Z" style="fill:#878787;"/><path d="M110.782,412.528l-6.527,26.325c-1.138,4.589 -5.787,7.391 -10.376,6.253l-16.629,-4.122c-4.589,-1.138 -7.391,-5.788 -6.254,-10.377l6.527,-26.325c1.138,-4.589 5.787,-7.391 10.376,-6.253l16.63,4.123c4.588,1.137 7.39,5.787 6.253,10.376Z" style="fill:#878787;"/><path d="M165.473,423.466l-6.526,26.325c-1.138,4.589 -5.787,7.391 -10.376,6.254l-16.63,-4.123c-4.589,-1.138 -7.391,-5.787 -6.253,-10.376l6.527,-26.326c1.137,-4.589 5.787,-7.391 10.376,-6.253l16.629,4.123c4.589,1.138 7.391,5.787 6.253,10.376Z" style="fill:#878787;"/><path d="M217.182,435.399l-6.527,26.325c-1.138,4.589 -5.787,7.391 -10.376,6.253l-16.629,-4.122c-4.589,-1.138 -7.391,-5.788 -6.254,-10.377l6.527,-26.325c1.138,-4.589 5.787,-7.391 10.376,-6.253l16.629,4.123c4.589,1.137 7.391,5.787 6.254,10.376Z" style="fill:#878787;"/><path d="M343.469,458.27l-6.526,26.325c-1.138,4.589 -5.787,7.391 -10.376,6.253l-16.63,-4.122c-4.589,-1.138 -7.391,-5.788 -6.253,-10.377l6.527,-26.325c1.137,-4.589 5.787,-7.391 10.376,-6.253l16.629,4.123c4.589,1.137 7.391,5.787 6.253,10.376Z" style="fill:#878787;"/><path d="M396.172,468.213l-6.527,26.326c-1.137,4.589 -5.787,7.391 -10.376,6.253l-16.629,-4.123c-4.589,-1.137 -7.391,-5.787 -6.253,-10.376l6.526,-26.325c1.138,-4.589 5.787,-7.391 10.376,-6.253l16.63,4.122c4.589,1.138 7.391,5.787 6.253,10.376Z" style="fill:#878787;"/><path d="M455.836,483.129l-6.527,26.326c-1.138,4.589 -5.787,7.391 -10.376,6.253l-16.63,-4.123c-4.589,-1.137 -7.391,-5.787 -6.253,-10.376l6.527,-26.325c1.138,-4.589 5.787,-7.391 10.376,-6.253l16.629,4.122c4.589,1.138 7.391,5.787 6.254,10.376Z" style="fill:#878787;"/><path d="M353.413,389.159l-6.526,26.326c-1.138,4.589 -5.788,7.391 -10.377,6.253l-16.629,-4.123c-4.589,-1.137 -7.391,-5.787 -6.253,-10.376l6.527,-26.325c1.137,-4.589 5.787,-7.391 10.376,-6.253l16.629,4.122c4.589,1.138 7.391,5.787 6.253,10.376Z" style="fill:#878787;"/><path d="M395.675,397.612l-6.527,26.325c-1.138,4.589 -5.787,7.391 -10.376,6.253l-16.629,-4.122c-4.589,-1.138 -7.391,-5.787 -6.253,-10.376l6.526,-26.326c1.138,-4.589 5.787,-7.391 10.376,-6.253l16.63,4.123c4.589,1.137 7.391,5.787 6.253,10.376Z" style="fill:#878787;"/><path d="M412.58,337.948l-6.527,26.326c-1.138,4.589 -5.787,7.391 -10.376,6.253l-16.63,-4.123c-4.589,-1.138 -7.391,-5.787 -6.253,-10.376l6.527,-26.325c1.138,-4.589 5.787,-7.391 10.376,-6.254l16.629,4.123c4.589,1.138 7.391,5.787 6.254,10.376Z" style="fill:#878787;"/><path d="M461.305,348.887l-6.527,26.325c-1.138,4.589 -5.787,7.391 -10.376,6.253l-16.629,-4.123c-4.589,-1.137 -7.391,-5.787 -6.254,-10.376l6.527,-26.325c1.138,-4.589 5.787,-7.391 10.376,-6.253l16.629,4.122c4.589,1.138 7.391,5.788 6.254,10.377Z" style="fill:#878787;"/><path d="M505.555,360.819l-6.527,26.326c-1.137,4.589 -5.787,7.391 -10.376,6.253l-16.629,-4.123c-4.589,-1.138 -7.391,-5.787 -6.253,-10.376l6.526,-26.325c1.138,-4.589 5.787,-7.391 10.376,-6.254l16.63,4.123c4.589,1.138 7.391,5.787 6.253,10.376Z" style="fill:#878787;"/><path d="M445.394,405.567l-6.526,26.325c-1.138,4.589 -5.787,7.391 -10.376,6.254l-16.63,-4.123c-4.589,-1.138 -7.391,-5.787 -6.253,-10.376l6.527,-26.326c1.137,-4.589 5.787,-7.391 10.376,-6.253l16.629,4.123c4.589,1.137 7.391,5.787 6.253,10.376Z" style="fill:#878787;"/><path d="M500.583,418.494l-6.527,26.325c-1.137,4.589 -5.787,7.391 -10.376,6.254l-16.629,-4.123c-4.589,-1.138 -7.391,-5.787 -6.253,-10.376l6.526,-26.326c1.138,-4.589 5.788,-7.391 10.377,-6.253l16.629,4.123c4.589,1.138 7.391,5.787 6.253,10.376Z" style="fill:#878787;"/><path d="M371.809,326.016l-6.526,26.325c-1.138,4.589 -5.787,7.391 -10.376,6.253l-16.63,-4.123c-4.589,-1.137 -7.391,-5.787 -6.253,-10.376l6.527,-26.325c1.138,-4.589 5.787,-7.391 10.376,-6.253l16.629,4.122c4.589,1.138 7.391,5.788 6.253,10.377Z" style="fill:#878787;"/><path d="M426.501,207.932l-6.527,26.325c-1.137,4.589 -5.787,7.391 -10.376,6.253l-16.629,-4.122c-4.589,-1.138 -7.391,-5.788 -6.253,-10.377l6.526,-26.325c1.138,-4.589 5.787,-7.391 10.376,-6.253l16.63,4.123c4.589,1.137 7.391,5.787 6.253,10.376Z" style="fill:#878787;"/><path d="M415.314,260.759l-6.527,26.325c-1.137,4.589 -5.787,7.391 -10.376,6.253l-16.629,-4.122c-4.589,-1.138 -7.391,-5.788 -6.253,-10.376l6.526,-26.326c1.138,-4.589 5.787,-7.391 10.376,-6.253l16.63,4.123c4.589,1.137 7.391,5.787 6.253,10.376Z" style="fill:#878787;"/><path d="M464.412,270.703l-6.527,26.325c-1.137,4.589 -5.787,7.391 -10.376,6.253l-16.629,-4.123c-4.589,-1.137 -7.391,-5.787 -6.253,-10.376l6.526,-26.325c1.138,-4.589 5.788,-7.391 10.377,-6.253l16.629,4.122c4.589,1.138 7.391,5.788 6.253,10.377Z" style="fill:#878787;"/><path d="M475.599,220.361l-6.527,26.326c-1.137,4.589 -5.787,7.391 -10.376,6.253l-16.629,-4.123c-4.589,-1.137 -7.391,-5.787 -6.253,-10.376l6.526,-26.325c1.138,-4.589 5.787,-7.391 10.376,-6.253l16.63,4.122c4.589,1.138 7.391,5.787 6.253,10.376Z" style="fill:#878787;"/><path d="M520.968,234.034l-6.527,26.326c-1.137,4.589 -5.787,7.391 -10.376,6.253l-16.629,-4.123c-4.589,-1.137 -7.391,-5.787 -6.253,-10.376l6.526,-26.325c1.138,-4.589 5.788,-7.391 10.377,-6.253l16.629,4.122c4.589,1.138 7.391,5.787 6.253,10.376Z" style="fill:#878787;"/><path d="M509.16,283.754l-6.527,26.325c-1.138,4.589 -5.787,7.391 -10.376,6.254l-16.629,-4.123c-4.589,-1.138 -7.391,-5.787 -6.254,-10.376l6.527,-26.326c1.138,-4.589 5.787,-7.391 10.376,-6.253l16.629,4.123c4.589,1.138 7.391,5.787 6.254,10.376Z" style="fill:#878787;"/><path d="M310.383,182.121l-10.033,31.103c-2.768,8.583 -11.984,13.304 -20.568,10.535l-35.323,-11.394c-8.583,-2.769 -13.304,-11.985 -10.535,-20.568l10.032,-31.102c2.769,-8.584 11.985,-13.304 20.568,-10.536l35.324,11.395c8.583,2.768 13.304,11.984 10.535,20.567Z" style="fill:#878787;"/><path d="M163.089,169.536l-10.033,31.103c-2.769,8.583 -11.985,13.304 -20.568,10.535l-35.324,-11.394c-8.583,-2.769 -13.303,-11.985 -10.535,-20.568l10.033,-31.103c2.769,-8.583 11.985,-13.303 20.568,-10.535l35.324,11.394c8.583,2.769 13.303,11.985 10.535,20.568Z" style="fill:#878787;"/><path d="M218.019,180.993l-6.566,20.358c-1.813,5.617 -7.845,8.707 -13.462,6.895l-28.883,-9.317c-5.618,-1.812 -8.707,-7.844 -6.895,-13.461l6.566,-20.358c1.812,-5.617 7.845,-8.707 13.462,-6.895l28.883,9.316c5.617,1.813 8.707,7.845 6.895,13.462Z" style="fill:#878787;"/><path d="M208.075,226.072l-6.566,20.358c-1.812,5.617 -7.845,8.707 -13.462,6.895l-28.883,-9.316c-5.617,-1.813 -8.707,-7.845 -6.895,-13.462l6.566,-20.358c1.813,-5.617 7.845,-8.707 13.462,-6.895l28.883,9.317c5.618,1.812 8.707,7.844 6.895,13.461Z" style="fill:#878787;"/><path d="M280.479,240.657l-6.566,20.357c-1.812,5.618 -7.844,8.707 -13.462,6.895l-28.883,-9.316c-5.617,-1.812 -8.707,-7.844 -6.895,-13.462l6.567,-20.357c1.812,-5.618 7.844,-8.708 13.461,-6.896l28.883,9.317c5.618,1.812 8.707,7.844 6.895,13.462Z" style="fill:#2cab31;"/><path d="M385.135,201.303l-24.96,77.381c-2.192,6.794 -9.487,10.53 -16.281,8.339l-24.62,-7.942c-6.794,-2.191 -10.53,-9.486 -8.339,-16.28l24.96,-77.381c2.192,-6.794 9.487,-10.53 16.281,-8.339l24.62,7.942c6.794,2.191 10.531,9.486 8.339,16.28Z" style="fill:#2cab31;"/><path d="M530.177,207.903l-0.888,12.228l-287.384,-82.331c-1.626,-0.466 -2.981,-1.597 -3.729,-3.115c-0.748,-1.517 -0.821,-3.28 -0.2,-4.854l45.238,-114.711l12.54,0.91l-44.19,112.054l278.613,79.819Z" style="fill:#aca69d;"/><path d="M206.158,512.986l123.493,-363.717l11.363,3.858l-122.488,360.757l-12.368,-0.898Z" style="fill:#aca69d;"/><path d="M6.352,370.559l0.877,-12.08l504.291,106.434l-0.877,12.079l-504.291,-106.433Z" style="fill:#aca69d;"/><path d="M16.81,226.494l0.88,-12.127l503.303,120.044l-0.88,12.126l-503.303,-120.043Z" style="fill:#aca69d;"/><path d="M51.483,227.454l42.884,-109.073l130.514,41.951l19.11,-27.967" style="fill:none;stroke:#aca69d;stroke-width:12px;"/><path d="M238.992,130.521l43.945,-115.421l10.412,0.755c-12.453,32.709 -43.081,113.154 -43.081,113.154l84.592,24.524c1.314,0.382 2.416,1.285 3.046,2.501c0.63,1.215 0.735,2.636 0.289,3.93l-66.901,194.207l-9.455,-3.257l65.19,-189.239l-84.756,-24.572c-1.342,-0.389 -2.46,-1.322 -3.083,-2.572c-0.623,-1.25 -0.695,-2.704 -0.198,-4.01Z" style="fill:#f53134;"/><circle cx="264.023" cy="361.831" r="11.32" style="fill:none;stroke:#f53134;stroke-width:10px;"/></g></svg>