<?xml version="1.0" encoding="UTF-8" standalone="no"?><!DOCTYPE svg PUBLIC "-//W3C//DTD SVG 1.1//EN" "http://www.w3.org/Graphics/SVG/1.1/DTD/svg11.dtd"><svg width="100%" height="100%" viewBox="0 0 101 111" version="1.1" xmlns="http://www.w3.org/2000/svg" xmlns:xlink="http://www.w3.org/1999/xlink" xml:space="preserve" xmlns:serif="http://www.serif.com/" style="fill-rule:evenodd;clip-rule:evenodd;stroke-linejoin:round;stroke-miterlimit:2;"><g id="Playstorelogo"><path d="M46.8,52.88l-46.286,48.494c1.522,5.393 6.479,9.145 12.083,9.145c2.213,0 4.387,-0.585 6.301,-1.695l52.08,-29.662l-24.178,-26.282Z" style="fill:#ea4335;fill-rule:nonzero;"/><path d="M93.604,44.637l-22.522,-12.9l-25.351,22.247l25.454,25.109l22.35,-12.761c4.03,-2.11 6.565,-6.299 6.565,-10.848c-0,-4.549 -2.535,-8.737 -6.565,-10.847l0.069,-0Z" style="fill:#fbbc04;fill-rule:nonzero;"/><path d="M0.514,9.353c-0.28,1.034 -0.419,2.102 -0.414,3.173l0,85.675c0.003,1.071 0.142,2.137 0.414,3.173l47.873,-47.252l-47.873,-44.769Z" style="fill:#4285f4;fill-rule:nonzero;"/><path d="M47.145,55.364l23.937,-23.627l-52.012,-29.799c-1.957,-1.146 -4.182,-1.753 -6.45,-1.759c-5.611,-0.012 -10.58,3.74 -12.106,9.14l46.631,46.045Z" style="fill:#34a853;fill-rule:nonzero;"/></g></svg>